<?xml version="1.0" encoding="UTF-8" standalone="no"?>
<!DOCTYPE svg PUBLIC "-//W3C//DTD SVG 1.1//EN" "http://www.w3.org/Graphics/SVG/1.1/DTD/svg11.dtd">
<svg width="100%" height="100%" viewBox="0 0 80 23" version="1.1" xmlns="http://www.w3.org/2000/svg" xmlns:xlink="http://www.w3.org/1999/xlink" xml:space="preserve" xmlns:serif="http://www.serif.com/" style="fill-rule:evenodd;clip-rule:evenodd;stroke-linejoin:round;stroke-miterlimit:2;">
    <g transform="matrix(1,0,0,1,-264.391,-547.325)">
        <g transform="matrix(2.5727,0,0,2.5727,-420.56,-864.04)">
            <path d="M271.611,553.741L268.295,553.741L268.295,557.139L266.238,557.139L266.238,548.608L271.945,548.608L271.945,550.196L268.295,550.196L268.295,552.159L271.611,552.159L271.611,553.741Z" style="fill:rgb(0,253,149);fill-rule:nonzero;"/>
            <rect x="272.812" y="548.598" width="1.98" height="8.541" style="fill:rgb(0,253,149);fill-rule:nonzero;"/>
            <path d="M279.58,557.139C279.51,557.01 279.447,556.821 279.392,556.571C279.029,557.028 278.521,557.256 277.869,557.256C277.271,557.256 276.764,557.076 276.346,556.714C275.928,556.353 275.719,555.899 275.719,555.352C275.719,554.664 275.973,554.145 276.48,553.793C276.988,553.442 277.726,553.266 278.695,553.266L279.305,553.266L279.305,552.93C279.305,552.346 279.053,552.053 278.549,552.053C278.08,552.053 277.846,552.285 277.846,552.748L275.871,552.748C275.871,552.135 276.132,551.638 276.653,551.256C277.175,550.873 277.84,550.682 278.648,550.682C279.457,550.682 280.096,550.879 280.564,551.274C281.033,551.668 281.273,552.209 281.285,552.897L281.285,555.704C281.293,556.286 281.383,556.731 281.555,557.039L281.555,557.139L279.58,557.139ZM278.344,555.85C278.59,555.85 278.794,555.797 278.956,555.692C279.118,555.586 279.234,555.467 279.305,555.334L279.305,554.321L278.73,554.321C278.043,554.321 277.699,554.629 277.699,555.247C277.699,555.426 277.76,555.572 277.881,555.683C278.002,555.794 278.156,555.85 278.344,555.85Z" style="fill:rgb(0,253,149);fill-rule:nonzero;"/>
            <path d="M284.818,554.789L285.82,550.799L287.9,550.799L285.832,557.139L283.816,557.139L281.748,550.799L283.834,550.799L284.818,554.789Z" style="fill:rgb(0,253,149);fill-rule:nonzero;"/>
            <path d="M290.572,557.139L288.592,557.139L288.592,550.799L290.572,550.799L290.572,557.139ZM288.475,549.553C288.475,549.272 288.576,549.041 288.779,548.862C288.982,548.682 289.246,548.592 289.57,548.592C289.894,548.592 290.158,548.682 290.361,548.862C290.564,549.041 290.666,549.272 290.666,549.553C290.666,549.834 290.564,550.065 290.361,550.245C290.158,550.424 289.894,550.514 289.57,550.514C289.246,550.514 288.982,550.424 288.779,550.245C288.576,550.065 288.475,549.834 288.475,549.553Z" style="fill:rgb(0,253,149);fill-rule:nonzero;"/>
            <path d="M295.359,557.139C295.289,557.01 295.226,556.821 295.172,556.571C294.808,557.028 294.301,557.256 293.648,557.256C293.051,557.256 292.543,557.076 292.125,556.714C291.707,556.353 291.498,555.899 291.498,555.352C291.498,554.664 291.752,554.145 292.26,553.793C292.767,553.442 293.506,553.266 294.475,553.266L295.084,553.266L295.084,552.93C295.084,552.346 294.832,552.053 294.328,552.053C293.859,552.053 293.625,552.285 293.625,552.748L291.65,552.748C291.65,552.135 291.911,551.638 292.433,551.256C292.954,550.873 293.619,550.682 294.428,550.682C295.236,550.682 295.875,550.879 296.344,551.274C296.812,551.668 297.053,552.209 297.064,552.897L297.064,555.704C297.072,556.286 297.162,556.731 297.334,557.039L297.334,557.139L295.359,557.139ZM294.123,555.85C294.369,555.85 294.573,555.797 294.735,555.692C294.897,555.586 295.014,555.467 295.084,555.334L295.084,554.321L294.51,554.321C293.822,554.321 293.478,554.629 293.478,555.247C293.478,555.426 293.539,555.572 293.66,555.683C293.781,555.794 293.935,555.85 294.123,555.85Z" style="fill:rgb(0,253,149);fill-rule:nonzero;"/>
        </g>
    </g>
</svg>
